<svg id="_560_paypal_flatline" data-name="#560_paypal_flatline" xmlns="http://www.w3.org/2000/svg" viewBox="0 0 400 300"><path d="M325.87,88.42V227.33A13.92,13.92,0,0,1,312,241.25H156.4a13.92,13.92,0,0,1-13.91-13.92V88.42A13.9,13.9,0,0,1,156.4,74.5H312A13.91,13.91,0,0,1,325.87,88.42Z" fill="#fff"/><path d="M312,74.5a13.91,13.91,0,0,1,13.92,13.92V227.33A13.92,13.92,0,0,1,312,241.25H156.4a13.92,13.92,0,0,1-13.91-13.92V88.42A13.9,13.9,0,0,1,156.4,74.5H312m0-1H156.4a14.93,14.93,0,0,0-14.91,14.92V227.33a14.93,14.93,0,0,0,14.91,14.92H312a14.93,14.93,0,0,0,14.92-14.92V88.42A14.93,14.93,0,0,0,312,73.5Z" fill="#231f20"/><path d="M325.87,88.42v7.42H142.49V88.42A13.9,13.9,0,0,1,156.4,74.5H312A13.91,13.91,0,0,1,325.87,88.42Z" fill="#e6e7e8"/><path d="M220.89,161.09c-3.26,0-6.42,0-9.58,0-1.36,0-1.93-.76-1.72-2.1l5.31-33.56L217,111.88c.25-1.62,1.11-2.51,2.69-2.5,7.11,0,14.22,0,21.31.33a17.19,17.19,0,0,1,7.1,2.35c3.75,2.06,5.15,5.71,4.73,9.8a30.18,30.18,0,0,1-2,8.44c-2.76,6.75-8.39,9.51-15.33,10-2.23.16-4.48,0-6.72.05-3.67,0-4.63.83-5.22,4.43-.81,5-1.59,10-2.39,15C221.1,160.2,221,160.61,220.89,161.09Z" fill="#6c63ff"/><path d="M255.24,125a8.55,8.55,0,0,1,3.47,6.41c.56,5-1.41,13.78-7.86,17.44A21.94,21.94,0,0,1,240,151.4c-2.92,0-3.42.42-3.89,3.3-.55,3.31-1.06,6.63-1.54,9.94-.35,2.34-1,2.9-3.33,2.91-2.19,0-4.38,0-6.57,0-1.67,0-2.13-.49-1.88-2.09,1.09-7,2.21-14,3.31-21,.18-1.13.81-1.46,1.92-1.5a83.08,83.08,0,0,0,11.18-.71c8.7-1.56,13.53-7.25,15.5-15.63.09-.38.18-.76.28-1.13A2.69,2.69,0,0,1,255.24,125Z" fill="#6c63ff"/><rect x="157.45" y="182.83" width="48.27" height="36.47" fill="#6c63ff"/><rect x="210.04" y="182.83" width="48.27" height="36.47" fill="#6c63ff"/><rect x="262.63" y="182.83" width="48.27" height="36.47" fill="#6c63ff"/><path d="M94.06,256.87l1.21-8,7.36,2.66s-.6,8.7,1,11.72,4.11,6.77,4.11,6.77-5.92,1.93-9.3,0S94.06,256.87,94.06,256.87Z" fill="#fff"/><path d="M102.34,271.4a8.45,8.45,0,0,1-4.18-.93c-3.57-2-4.56-13.09-4.6-13.56a.48.48,0,0,1,0-.12l1.21-8a.5.5,0,0,1,.24-.36.52.52,0,0,1,.42,0l7.37,2.66a.5.5,0,0,1,.33.5c0,.09-.57,8.6.91,11.46s4.06,6.68,4.08,6.72a.49.49,0,0,1-.26.75A19.55,19.55,0,0,1,102.34,271.4Zm-7.78-14.52c.27,3.1,1.52,11.25,4.09,12.72s6.68.56,8.26.14c-.77-1.17-2.55-3.93-3.75-6.24-1.45-2.78-1.15-9.87-1-11.61l-6.44-2.32Z" fill="#231f20"/><path d="M136.35,252.55V259s7,6.18,11,5.41c0,0-2.54-3.68-2.43-6s0-5.92,0-5.92Z" fill="#fff"/><path d="M146.6,265c-4.23,0-10.31-5.35-10.58-5.59a.52.52,0,0,1-.17-.38v-6.49a.51.51,0,0,1,.5-.5h8.54a.51.51,0,0,1,.5.49s.11,3.67,0,6c-.09,1.74,1.66,4.68,2.34,5.66a.49.49,0,0,1,.05.48.5.5,0,0,1-.36.3A4.47,4.47,0,0,1,146.6,265Zm-9.75-6.2c1,.85,6.14,5.11,9.6,5.21-.76-1.23-2.15-3.75-2.06-5.57s0-4.33,0-5.4h-7.55Z" fill="#231f20"/><path d="M94.06,256.87s-3.63,2.17-4.84,5.43a23.62,23.62,0,0,0-1.08,7.49l2.29.73s1.21-4.35,2.18-5.32c0,0,2.17,7.37,4.35,8.46s16.67.6,17.27,0-6.52-5.32-6.52-5.32-4.23,1.94-7.73-.24S94.06,256.87,94.06,256.87Z" fill="#231f20"/><path d="M105.5,274.82c-3.91,0-7.81-.24-8.77-.71-1.86-.93-3.57-5.59-4.28-7.74a29.84,29.84,0,0,0-1.54,4.28.49.49,0,0,1-.24.31.53.53,0,0,1-.39,0L88,270.27a.48.48,0,0,1-.35-.46,23.48,23.48,0,0,1,1.12-7.68c1.25-3.39,4.89-5.6,5-5.69a.49.49,0,0,1,.44,0,.51.51,0,0,1,.3.34c0,.09,2.41,8.89,5.7,10.94s7.22.23,7.26.21a.48.48,0,0,1,.48,0c3,2,6.69,4.61,6.79,5.57a.63.63,0,0,1-.18.51C114.06,274.54,109.77,274.82,105.5,274.82ZM92.61,264.7l.12,0a.5.5,0,0,1,.36.34c.58,2,2.47,7.34,4.09,8.15,1.8.9,13.87.62,16.39.15a48.07,48.07,0,0,0-5.91-4.45c-1,.4-4.73,1.62-8-.38s-5.3-8.69-5.95-10.86a11.6,11.6,0,0,0-4.07,4.81,22.63,22.63,0,0,0-1.06,6.95l1.46.46c.37-1.23,1.31-4.18,2.16-5A.51.51,0,0,1,92.61,264.7Z" fill="#231f20"/><path d="M103,136.68s1.88,53.54,0,59.93-8.91,57.48-8.91,57.48l10.79,3.78s15.52-53.75,19.22-62.76,6.69-33.81,6.69-33.81,2.24,22.91,2.44,30.8,0,60.48,0,60.48,6.94,3.76,13.34.76c0,0,5.33-83.32,8.28-102.19s-5.65-35.63-5.65-35.63Z" fill="#231f20"/><path d="M104.85,258.37a.45.45,0,0,1-.16,0l-10.8-3.78a.51.51,0,0,1-.33-.54c.29-2.09,7.07-51.2,8.93-57.55s0-59.24,0-59.77a.5.5,0,0,1,.3-.47L149,115.07a.52.52,0,0,1,.66.22c.08.17,8.63,17.14,5.69,35.94-2.91,18.62-8.22,101.31-8.27,102.14a.54.54,0,0,1-.29.42c-6.56,3.08-13.5-.61-13.79-.77a.49.49,0,0,1-.26-.44c0-.52.2-52.67,0-60.47-.15-5.66-1.36-19.29-2-26.35-1,7.56-3.38,22.78-6.15,29.54-3.64,8.88-19,62.17-19.2,62.71a.5.5,0,0,1-.25.3A.46.46,0,0,1,104.85,258.37Zm-10.24-4.62,9.91,3.47c1.59-5.51,15.61-53.83,19.09-62.3,3.63-8.85,6.62-33.44,6.65-33.68a.51.51,0,0,1,.5-.44h0a.5.5,0,0,1,.49.45c0,.23,2.24,23,2.44,30.84.19,7.49,0,55.82,0,60.19,1.28.61,7,3.06,12.36.72.35-5.51,5.43-83.82,8.26-101.92,2.63-16.83-4.1-32.16-5.38-34.9L103.49,137c.17,4.94,1.79,53.55,0,59.75C101.69,202.73,95.28,248.91,94.61,253.75Z" fill="#231f20"/><path d="M134,65.43s12.28,47.1,11.35,58.43l-23.91,3.43s-10-43.05-10.34-52.05,8.37-15.95,8.37-15.95Z" fill="#231f20"/><path d="M121.41,127.79a.5.5,0,0,1-.49-.39c-.41-1.76-10-43.2-10.36-52.15-.31-9.15,8.2-16.06,8.56-16.35a.5.5,0,0,1,.5-.07L134.16,65a.54.54,0,0,1,.29.34c.5,1.93,12.28,47.32,11.36,58.6a.52.52,0,0,1-.43.46l-23.9,3.42Zm-1.89-67.92c-1.34,1.16-8.23,7.51-8,15.35.29,8.36,9.16,46.9,10.23,51.51l23-3.31c.58-11.34-10.37-54-11.3-57.63Z" fill="#231f20"/><polygon points="146.6 75.24 154.25 102.35 145.61 110.75 139.82 78.12 146.6 75.24" fill="#fff"/><path d="M145.61,111.25l-.15,0a.5.5,0,0,1-.34-.39l-5.79-32.63a.5.5,0,0,1,.29-.55l6.78-2.88a.46.46,0,0,1,.41,0,.49.49,0,0,1,.27.31l7.66,27.12a.48.48,0,0,1-.14.49l-8.64,8.4A.5.5,0,0,1,145.61,111.25Zm-5.23-32.83,5.56,31.32,7.75-7.54-7.42-26.28Z" fill="#231f20"/><path d="M135.53,70.06s5.67,76.91,5.35,81.09c0,0,18.07-1.63,18.53-3.72S145,102.92,144.62,95.31s-.09-10.86-.3-15.63l5.44-1.33s-2.19-11-6.93-15.41-12.49-4.32-12.49-4.32" fill="#6c63ff"/><path d="M116.37,70.8s9.54,17.1,12.42,26.53S132.43,153,132.43,153H99.83s4.56-32.3,2.88-41.21-5.6-20.78-.33-34.1,9.77-13,9.77-13Z" fill="#6c63ff"/><path d="M141.66,107c-.1.38-3.14,9.21,6.2,6.11s12.56-27.2,14.53-30,5.3-12.58,5-14.64S161.65,72,161.65,72,143.74,99.38,141.66,107Z" fill="#fff"/><path d="M144.47,114.26a3.85,3.85,0,0,1-2.79-1c-1.65-1.62-1-4.68-.52-6.37l.5.07-.48-.13c2.07-7.6,19.32-34.07,20-35.19,1.39-1.45,4.64-4.6,6-4.17a1,1,0,0,1,.64.83c.35,2.36-3.15,12.25-5.06,15-.49.7-1.16,3.2-1.93,6.1-2.32,8.68-5.81,21.8-12.86,24.14A11.61,11.61,0,0,1,144.47,114.26Zm22.36-45.79c-.6,0-2.81,1.74-4.82,3.82-.12.2-17.84,27.38-19.86,34.83h0s0,.09,0,.1c-.36,1.18-1.06,4.06.26,5.36.92.9,2.71.91,5.33,0,6.53-2.17,10.08-15.49,12.2-23.45.86-3.23,1.48-5.56,2.07-6.41,1.9-2.73,5.19-12.35,4.91-14.29Z" fill="#231f20"/><polygon points="157.37 55.39 169.29 54 164.99 79.78 152.21 81.9 157.37 55.39" fill="#231f20"/><path d="M152.2,82.4a.47.47,0,0,1-.35-.15.49.49,0,0,1-.14-.44l5.16-26.52a.52.52,0,0,1,.44-.4l11.93-1.39a.52.52,0,0,1,.42.16.53.53,0,0,1,.13.42l-4.3,25.78a.5.5,0,0,1-.41.41L152.29,82.4Zm5.59-26.56-5,25.45,11.73-2,4.13-24.77Z" fill="#231f20"/><path d="M104.13,98.92s19.82,27,25.47,24.82,21-27.18,24.82-33.33,10.4-15.22,11.1-19-2.14-6-3.54-5.28-6.87,4.52-6.87,4.52.61-5.22-.22-5.23-3.64,3.53-2.61,11l-22.9,26.69L117.74,86.5" fill="#fff"/><path d="M129,124.35c-6.56,0-23.26-22.47-25.22-25.14a.5.5,0,0,1,.1-.7.51.51,0,0,1,.7.11c7.88,10.73,21,26.13,24.89,24.65,3.52-1.35,11.64-12.25,24.13-32.42l.44-.71c1-1.62,2.18-3.41,3.43-5.3,3.33-5.08,7.11-10.83,7.6-13.51a4.37,4.37,0,0,0-1.4-4.4,1.43,1.43,0,0,0-1.41-.34c-1.36.69-6.76,4.44-6.81,4.48a.52.52,0,0,1-.55,0,.5.5,0,0,1-.24-.49,19.51,19.51,0,0,0,.12-4.6c-.76.56-2.85,3.81-1.95,10.38a.52.52,0,0,1-.12.4l-22.9,26.68a.43.43,0,0,1-.4.17.47.47,0,0,1-.39-.21L117.33,86.78a.5.5,0,0,1,.13-.69.49.49,0,0,1,.69.12l11.27,16.11,22.34-26c-.7-5.44.61-9.14,2-10.66.42-.47.8-.73,1.17-.7a.7.7,0,0,1,.53.25c.52.59.45,2.73.3,4.45,1.62-1.11,4.95-3.38,6-3.93a2.38,2.38,0,0,1,2.47.42A5.36,5.36,0,0,1,166,71.51c-.53,2.88-4.21,8.47-7.76,13.87-1.24,1.9-2.41,3.68-3.41,5.29l-.44.71c-4.7,7.58-19,30.67-24.62,32.83A2.45,2.45,0,0,1,129,124.35Z" fill="#231f20"/><path d="M144.72,84.22a.49.49,0,0,1-.5-.45,35.14,35.14,0,0,0-2.52-10.59.51.51,0,0,1,.25-.66.49.49,0,0,1,.66.24,35.38,35.38,0,0,1,2.61,10.92.5.5,0,0,1-.46.54Z" fill="#231f20"/><path d="M136.09,68.07a13.35,13.35,0,0,0-5.63-.78c-6.18.89-12.84,4.28-17.89-1.61a15.89,15.89,0,0,1-3.32-9c-.45-5.35.78-11.07,2.39-16.15,1.08-3.41,5.28-15.93,10.71-10.3-1.23-1.27,5-4,5.84-4.17,8-2,15,5.22,16.53,12.52,1.13,5.3,1.07,10.52,3.44,15.54,1,2.21,2.41,4.41,2.43,6.86a8,8,0,0,1-4.72,6.91,12.93,12.93,0,0,1-8.64.52C136.85,68.28,136.47,68.17,136.09,68.07Z" fill="#fff"/><path d="M120,69.57A9.62,9.62,0,0,1,112.19,66a16.07,16.07,0,0,1-3.44-9.32c-.39-4.64.4-10,2.41-16.34,1.59-5,4.21-11.19,7.64-12a3.65,3.65,0,0,1,3.11.79c1-1.64,5.59-3.45,6.16-3.59a12,12,0,0,1,9.41,1.64,18.12,18.12,0,0,1,7.73,11.25c.37,1.74.61,3.48.85,5.16.5,3.58,1,6.95,2.55,10.27.19.41.39.81.59,1.21a13.49,13.49,0,0,1,1.89,5.86,8.45,8.45,0,0,1-5,7.37,13.52,13.52,0,0,1-9,.56L136,68.55h0l-.28-.08a12.21,12.21,0,0,0-5.15-.68c-1.29.18-2.64.49-3.94.78A30.5,30.5,0,0,1,120,69.57Zm-.42-40.32a2.33,2.33,0,0,0-.53.07c-2.32.54-4.77,4.56-6.92,11.33-2,6.22-2.74,11.44-2.36,16a15.11,15.11,0,0,0,3.2,8.75c3.78,4.42,8.46,3.36,13.42,2.25,1.32-.3,2.69-.61,4-.8a13.09,13.09,0,0,1,5.56.71l.28.08,1.12.3a12.52,12.52,0,0,0,8.31-.49,7.43,7.43,0,0,0,4.43-6.46,12.76,12.76,0,0,0-1.78-5.42q-.31-.62-.6-1.23a35.37,35.37,0,0,1-2.64-10.56c-.23-1.66-.48-3.39-.84-5.09A17,17,0,0,0,137,28a11,11,0,0,0-8.64-1.52c-1.18.29-5.69,2.53-5.62,3.31a.53.53,0,0,1,0,.72.49.49,0,0,1-.7,0h0A3.48,3.48,0,0,0,119.56,29.25Z" fill="#231f20"/><path d="M141.62,41.26s2.41,8.21.64,14.23A9,9,0,0,1,135,62.07l-.64,10.82s-.28,5.53-7,4.28a11.69,11.69,0,0,1-8.71-7.25L119,50s7.94-4,7.7-11.15C126.72,38.84,135.59,43.8,141.62,41.26Z" fill="#fff"/><path d="M129.19,77.85a10.71,10.71,0,0,1-2-.19,12,12,0,0,1-9.09-7.58.45.45,0,0,1,0-.16L118.52,50a.49.49,0,0,1,.28-.44c.07,0,7.65-3.91,7.42-10.68a.5.5,0,0,1,.24-.45.52.52,0,0,1,.5,0c.09.05,8.74,4.81,14.46,2.4a.51.51,0,0,1,.68.32c.1.34,2.43,8.42.64,14.52a9.58,9.58,0,0,1-7.3,6.86l-.61,10.41a5.58,5.58,0,0,1-2,3.8A5.74,5.74,0,0,1,129.19,77.85Zm-10.07-8a11.2,11.2,0,0,0,8.3,6.83c2.07.39,3.69.14,4.81-.74a4.57,4.57,0,0,0,1.6-3.07L134.47,62a.5.5,0,0,1,.45-.47,8.39,8.39,0,0,0,6.86-6.22c1.45-5,0-11.54-.5-13.43-5.16,1.79-11.85-1.15-14.07-2.26-.3,6.23-6.31,9.87-7.7,10.63Z" fill="#231f20"/><path d="M122.85,48.81s-2.9-7.71-6.94-3.19,1.14,10,4.5,9.77" fill="#fff"/><path d="M120.18,55.9c-2.05,0-4.47-1.71-5.6-4a5.72,5.72,0,0,1,1-6.6A3.71,3.71,0,0,1,119,43.75c2.66.5,4.27,4.7,4.34,4.88a.5.5,0,0,1-.29.65.52.52,0,0,1-.65-.29c-.4-1.08-1.84-3.93-3.59-4.26A2.8,2.8,0,0,0,116.28,46a4.72,4.72,0,0,0-.81,5.49c1,2,3.2,3.59,4.9,3.45a.5.5,0,0,1,.08,1Z" fill="#231f20"/><path d="M137,55.58a9,9,0,0,1-2.44-.41.52.52,0,0,1-.32-.64.49.49,0,0,1,.63-.31,5.66,5.66,0,0,0,3.1.2c.14-.44-1.14-3.07-2.81-5.57a.5.5,0,0,1,.84-.56c.77,1.17,3.27,5.08,2.87,6.46a.89.89,0,0,1-.49.58A3.49,3.49,0,0,1,137,55.58Z" fill="#231f20"/><path d="M134.24,58.79a6.91,6.91,0,0,1-2.06-.31A7.88,7.88,0,0,1,127.71,55a.5.5,0,0,1,.29-.65.51.51,0,0,1,.64.29,7.1,7.1,0,0,0,4,2.89c2.07.56,4.27,0,6.52-1.61a.5.5,0,0,1,.7.11.51.51,0,0,1-.11.7A9.44,9.44,0,0,1,134.24,58.79Z" fill="#231f20"/><path d="M135,62.07s-5.82.39-9.09-.66c0,0,3.12,8.74,8.62,9Z" fill="#231f20"/><path d="M134.5,70.92h0c-5.76-.29-8.93-9-9.06-9.34a.48.48,0,0,1,.11-.51.49.49,0,0,1,.51-.13c3.14,1,8.85.64,8.9.63a.5.5,0,0,1,.39.14.58.58,0,0,1,.15.39L135,70.45A.5.5,0,0,1,134.5,70.92Zm-7.78-8.77c.92,2.1,3.5,7.13,7.31,7.73l.41-7.28A33.79,33.79,0,0,1,126.72,62.15Z" fill="#231f20"/><ellipse cx="131.84" cy="47.21" rx="1.49" ry="0.85" transform="translate(84.04 178.84) rotate(-89.74)" fill="#231f20"/><ellipse cx="139.68" cy="47.24" rx="1.49" ry="0.85" transform="translate(91.81 186.71) rotate(-89.74)" fill="#231f20"/><path d="M136.2,257.19s-1.39.46-1.78,3.16.89,8.58.89,8.58h2.43v-3.74a53.53,53.53,0,0,0,5.18,3.74c1.39.69,12.51,0,12.51,0s-2.16-3.79-3.86-4.4a24.18,24.18,0,0,0-4.94-.85S137.51,260.89,136.2,257.19Z" fill="#231f20"/><path d="M147,269.74a14.73,14.73,0,0,1-4.27-.36,41.42,41.42,0,0,1-4.45-3.15v2.7a.5.5,0,0,1-.5.5h-2.43a.5.5,0,0,1-.49-.39c0-.25-1.29-6-.9-8.76.43-3,2.05-3.54,2.12-3.57a.5.5,0,0,1,.63.31c1,2.82,7.54,5.39,10.05,6.16a24.11,24.11,0,0,1,5,.88c1.82.66,3.89,4.22,4.13,4.62a.53.53,0,0,1,0,.49.5.5,0,0,1-.41.26C154.3,269.5,150.23,269.74,147,269.74Zm-9.22-5.05a.56.56,0,0,1,.32.11,50.5,50.5,0,0,0,5.08,3.68c.87.43,7.15.24,11.43,0-.78-1.23-2.15-3.11-3.17-3.48a24.59,24.59,0,0,0-4.81-.83.2.2,0,0,1-.11,0c-.36-.11-8.51-2.63-10.5-6.23a4.09,4.09,0,0,0-1.06,2.5c-.32,2.19.52,6.66.8,8h1.52v-3.24a.51.51,0,0,1,.5-.5Z" fill="#231f20"/></svg>