<svg id="Layer_1" data-name="Layer 1" xmlns="http://www.w3.org/2000/svg" xmlns:xlink="http://www.w3.org/1999/xlink" viewBox="0 0 386.62 285.76"><defs><linearGradient id="linear-gradient" x1="187.31" y1="197.19" x2="199.7" y2="16.99" gradientTransform="matrix(1, 0, 0, -1, 0, 352)" gradientUnits="userSpaceOnUse"><stop offset="0.01"/><stop offset="0.08" stop-opacity="0.69"/><stop offset="0.21" stop-opacity="0.32"/><stop offset="1" stop-opacity="0"/></linearGradient><linearGradient id="linear-gradient-2" x1="219.36" y1="147.49" x2="290.31" y2="148.99" gradientTransform="matrix(1, 0, 0, -1, -11.52, 323.36)" gradientUnits="userSpaceOnUse"><stop offset="0.01"/><stop offset="0.08" stop-opacity="0.69"/><stop offset="0.21" stop-opacity="0.32"/><stop offset="0.81" stop-opacity="0"/></linearGradient><linearGradient id="linear-gradient-3" x1="-1396.15" y1="-140.39" x2="-1243.16" y2="-147.17" gradientTransform="matrix(-1, 0, 0, 1, -1085.62, 372.53)" xlink:href="#linear-gradient"/><linearGradient id="linear-gradient-4" x1="184.26" y1="112.43" x2="205.66" y2="72.07" gradientTransform="matrix(1, 0, 0, -1, -11.52, 323.36)" xlink:href="#linear-gradient"/><linearGradient id="linear-gradient-5" x1="182.36" y1="142.12" x2="217.27" y2="94.53" gradientTransform="matrix(1, 0, 0, -1, -11.52, 323.36)" xlink:href="#linear-gradient"/><linearGradient id="linear-gradient-6" x1="141.49" y1="94.25" x2="174.33" y2="85.8" xlink:href="#linear-gradient"/><linearGradient id="linear-gradient-7" x1="194.85" y1="248.77" x2="201.82" y2="31.8" xlink:href="#linear-gradient"/><linearGradient id="linear-gradient-8" x1="188.17" y1="169.47" x2="190.28" y2="137.8" gradientTransform="matrix(1, 0, 0, -1, -11.52, 323.36)" gradientUnits="userSpaceOnUse"><stop offset="0.01" stop-color="#fff"/><stop offset="1" stop-color="#fff" stop-opacity="0"/></linearGradient><linearGradient id="linear-gradient-9" x1="205.82" y1="158.15" x2="150.07" y2="159.56" xlink:href="#linear-gradient-2"/><linearGradient id="linear-gradient-10" x1="125.86" y1="86.34" x2="158.71" y2="77.9" xlink:href="#linear-gradient"/><linearGradient id="linear-gradient-11" x1="186.86" y1="139.13" x2="218.77" y2="194.69" xlink:href="#linear-gradient-8"/><linearGradient id="linear-gradient-12" x1="175.45" y1="163.31" x2="201.82" y2="134.96" xlink:href="#linear-gradient-2"/><linearGradient id="linear-gradient-13" x1="166.61" y1="172.22" x2="199.84" y2="147.72" xlink:href="#linear-gradient-2"/></defs><title>1</title><path d="M164.75,31.66c-14.82,3.21-29.62,7.73-42.31,16C87.93,70.28,76,115,48.59,145.79c-12,13.42-27.33,24.79-33.69,41.6-5,13.36-3.59,28.23-1.28,42.32A385.86,385.86,0,0,0,22,268.32c2.12,7.81,4.55,15.7,9.09,22.4,13.61,20.09,41.36,23.9,65.62,23.66a408.54,408.54,0,0,0,73.92-7.5c12.2-2.37,24.35-5.31,36.75-6.19,26.93-1.9,53.43,6,80,10.63s55.7,5.65,78.71-8.46A68.21,68.21,0,0,0,397.82,252c1.43-15.06-2.26-30.09-6.21-44.69Q384,179,374.79,151.23c-4.72-14.31-9.78-28.63-17.52-41.56C322.65,51.88,227.94,18,164.75,31.66Z" transform="translate(-11.52 -28.64)" fill="#6e7dff" opacity="0.18" style="isolation:isolate"/><path d="M102.14,264.69c2.57.56,5.17-.61,7.8-.78s5.87,1.63,5.36,4.21a84.58,84.58,0,0,0,26.7,3.42,8.81,8.81,0,0,0-.65-3.93,681.76,681.76,0,0,1,71.07-6,11.38,11.38,0,0,1,4.53.47c1.28.49,2.34,1.4,3.57,2,5.69,2.66,11.79-2.56,18-3.63a13.73,13.73,0,0,1,6.93.59c3.17,1.13,5.81,3.37,8.83,4.84a20.14,20.14,0,0,0,18.13-.38,3.34,3.34,0,0,0,1.91-2c.49-2.4-3.76-3.84-3.21-6.22l28.25-1.95c6.37-.44,13.09-.81,18.83,2a12.65,12.65,0,0,1-5.68,3.89c10.06,1.47,21.63,4,26.23,13-22.69,4.19-46.53,15.3-69.06,10.39A329.93,329.93,0,0,0,163.46,279a2.49,2.49,0,0,0-1.42.47c-1.1,1,.32,2.75.36,4.24,0,2.18-2.73,3.09-4.9,3.32a368.3,368.3,0,0,1-91.27-1.67c-5.31-.77-11.41-2.24-13.66-7.11q18.21-3,36.6-4.48a68.72,68.72,0,0,1-10.33-4.23,4.69,4.69,0,0,1-2.18-1.75,3.32,3.32,0,0,1,1.11-3.94,9.9,9.9,0,0,1,4.07-1.63A42.81,42.81,0,0,0,102.14,264.69Z" transform="translate(-11.52 -28.64)" fill="url(#linear-gradient)"/><rect x="220.12" y="117.94" width="4.85" height="115.24" fill="#6e7dff"/><rect x="220.12" y="117.94" width="4.85" height="115.24" fill="url(#linear-gradient-2)"/><rect x="186.65" y="45" width="75.8" height="75.8" fill="#fff"/><path d="M192,245.26c5.15-1.17,4.14,6.13,5.5,8.85a14.55,14.55,0,0,0,3.18,3.64A6.62,6.62,0,0,1,203,261.9a1.58,1.58,0,0,1-.19.88,1.68,1.68,0,0,1-1,.62,11.93,11.93,0,0,1-8.81-.87,7,7,0,0,1-3-2.81,9.72,9.72,0,0,1-.78-4.16C189.08,252.52,187.73,246.21,192,245.26Z" transform="translate(-11.52 -28.64)" fill="#fdb9a9"/><path d="M196.58,260.29s14.65.62,8.44,5.23-15.47-1.13-16.37-2.18-.17-2.85-.17-2.85Z" transform="translate(-11.52 -28.64)" fill="#6e7dff"/><path d="M189.29,262.31c1.31,1.59,8.19,3.73,11.23,3.51s5.79-1.64,5.49-3.6-5.68-6.56-6.69-6.55-1.82,2.36-3.86,2.84a5.38,5.38,0,0,1-5-1.77,1.36,1.36,0,0,0-1.67-.44C188.14,257.31,188,260.72,189.29,262.31Z" transform="translate(-11.52 -28.64)" fill="#fff"/><path d="M174.36,248.14c5.15-1.19,4.14,6.1,5.5,8.81a14.27,14.27,0,0,0,3.18,3.66,6.56,6.56,0,0,1,2.31,4.15,1.46,1.46,0,0,1-.18.87,1.68,1.68,0,0,1-1,.62,12,12,0,0,1-8.82-.87,6.94,6.94,0,0,1-3-2.8,9.72,9.72,0,0,1-.78-4.16C171.41,255.34,170.06,249.06,174.36,248.14Z" transform="translate(-11.52 -28.64)" fill="#fdb9a9"/><path d="M178.91,263.1s14.66.62,8.45,5.23-15.47-1.12-16.37-2.17-.17-2.85-.17-2.85Z" transform="translate(-11.52 -28.64)" fill="#6e7dff"/><path d="M171.62,265.1c1.31,1.6,8.19,3.73,11.24,3.52s5.78-1.64,5.48-3.61-5.68-6.56-6.69-6.54-1.82,2.35-3.85,2.83a5.43,5.43,0,0,1-5-1.78,1.34,1.34,0,0,0-1.66-.42C170.48,260.13,170.31,263.5,171.62,265.1Z" transform="translate(-11.52 -28.64)" fill="#fff"/><path d="M187.63,181.68l-6.88,72.45-9.93-1.23c-3.92-17.68-2.95-70.57-2.95-70.57Z" transform="translate(-11.52 -28.64)" fill="#473f47"/><path d="M180.75,179.72l6.88,72.45,10-1.23c5.67-45.84,1-74.38,1-74.38Z" transform="translate(-11.52 -28.64)" fill="#473f47"/><path d="M209.07,146.36l-14.85-15.21v20.44a37.51,37.51,0,0,0,3.33,2.71c2.8,2,6.8,4.36,9.85,3.75a3,3,0,0,0,.43-.12c1.66-.55,2.28-2.22,2.39-4.13A23.46,23.46,0,0,0,209.07,146.36Z" transform="translate(-11.52 -28.64)" fill="#6e7dff"/><path d="M197.7,153.52c.12-1.33.48-2.65.62-4a30.18,30.18,0,0,0-.16-8.22,30.69,30.69,0,0,0-2.59-8.37c-1.14-2.3-3.21-3.27-5.54-4.42a19.79,19.79,0,0,0-6.24-2.12,15.59,15.59,0,0,0-4.62.26c-4.68.88-10.84,3.3-14,7-2.4,2.77-2.68,6.74-2.75,10.41q-.15,7.59.31,15.17c0,.73.09,1.46.15,2.2.42,5.54.88,11.3,2.46,16.66.49,1.68,1,3.37,2.57,4.27,3.66,2.13,9.26,1,13.21.41,5.25-.75,10.63-1.53,15.29-4.07a4.41,4.41,0,0,0,2.21-2.13c.4-1.14-.09-2.38-.44-3.53-1.58-5.18-.36-10.62-.36-15.91,0-1-.12-1.93-.12-2.88A5.93,5.93,0,0,1,197.7,153.52Z" transform="translate(-11.52 -28.64)" fill="#6e7dff"/><path d="M176.73,183.68c.51-1-.57-3.69-.16-5.08.72-2.53,1.61-4.48,1.49-7.28a36.86,36.86,0,0,0-.92-6l-3.35-16c-.61-2.92-1.94-17-6.41-15.43a9.26,9.26,0,0,0-5.24,5.82,24,24,0,0,0-.93,8c.08,7,1.48,14.24,2.38,21.23.34,2.64.76,12.47,4.26,13.33.67.18,1.35.53,2,.65,1.17.21,4.71,1.61,6.24,1.16A1,1,0,0,0,176.73,183.68Z" transform="translate(-11.52 -28.64)" fill="#020202" opacity="0.1" style="isolation:isolate"/><path d="M187.61,119.11a37.89,37.89,0,0,0-.26-4.15c-.15-1.35-.31-2.42-.55-3.62a2.48,2.48,0,0,0-.92-1.83,11.45,11.45,0,0,0-6.19-1.69A5,5,0,0,0,174,112a4.62,4.62,0,0,0-.06.74c-.33,3,.46,6.07.9,9.11a37.24,37.24,0,0,1,.37,7.08,8.49,8.49,0,0,0,3.83,1.36,6.34,6.34,0,0,0,1.88-.32,1.38,1.38,0,0,0,.84-.55,1.52,1.52,0,0,0,.06-.79c0-.25-.06-.49-.06-.74h0a23.12,23.12,0,0,1,.08-4.16.39.39,0,0,1,.12-.31.48.48,0,0,1,.29,0h.38a12,12,0,0,0,2.08,0,3.43,3.43,0,0,0,2.15-1.08A4.47,4.47,0,0,0,187.61,119.11Z" transform="translate(-11.52 -28.64)" fill="#fdb9a9"/><path d="M184.85,110.12a5.69,5.69,0,0,0,3.83-2.34,4.07,4.07,0,0,0-.12-4.61,6.94,6.94,0,0,0-3.39-1.94,3.91,3.91,0,0,1,.31,1.16,8.72,8.72,0,0,0-2.32-1.07,7.83,7.83,0,0,1,.92,1.77,8,8,0,0,1-2.77.68c-1.15.13-2.3.29-3.44.5a11.4,11.4,0,0,0-5,1.84,4.69,4.69,0,0,0-1.94,4.67.91.91,0,0,1,.06.4c0,.24-.29.39-.5.52a4.17,4.17,0,0,0-1.27,1.24,3.75,3.75,0,0,0-.68,1.93c-.08,1.71,1.14,3.2,2.45,4.29.74.62,1.53,1.17,2.25,1.8a10,10,0,0,1,1,1.06c.19.24.4.81.74.87s.58-.3.68-.62a6.27,6.27,0,0,0-.28-4.14,4.65,4.65,0,0,1-.68-2.11c.08-.74,1.08-1.32,1.56-.89s.57,1.5,1.16,1.29c-.68-2.11.21-4.77,2.24-5.6,1.49-.59,3.19-.33,4.75-.59Z" transform="translate(-11.52 -28.64)" fill="#2f3554"/><path d="M182.61,123.38a24,24,0,0,1-4.68-1.39c-.14,4.89,3.84,5.9,3.84,5.9h0a23.12,23.12,0,0,1,.08-4.16.43.43,0,0,1,.12-.31.48.48,0,0,1,.29,0h.35Z" transform="translate(-11.52 -28.64)" fill="#de9f93"/><path d="M222,146.57c-.43-1.23-1-2.64-1.71-2.92-1.19-.49-11.24,2.71-11.24,2.71s-4.41,2.37-4.25,6.44a7.52,7.52,0,0,0,1.72,4.24,2.65,2.65,0,0,0,1.29.89,2.29,2.29,0,0,0,.94.1,14.27,14.27,0,0,0,6.7-2.4,29.4,29.4,0,0,0,7.14-7.11A20.22,20.22,0,0,0,222,146.57Z" transform="translate(-11.52 -28.64)" fill="#6e7dff"/><path d="M222,146.58a47.62,47.62,0,0,1-10.35,6.78,5.65,5.65,0,0,1-1.45.44,9.06,9.06,0,0,1-5.43-1,24,24,0,0,1-6.29-4.67l-.95,6.11v.06c2.8,2,6.8,4.36,9.85,3.75a3,3,0,0,0,.43-.12,2.29,2.29,0,0,0,.94.1,14.27,14.27,0,0,0,6.7-2.4,29.4,29.4,0,0,0,7.14-7.11A19.61,19.61,0,0,0,222,146.58Z" transform="translate(-11.52 -28.64)" fill="#020202" opacity="0.1" style="isolation:isolate"/><path d="M220.55,147.11a2,2,0,0,0,1.18.16,19,19,0,0,0,4.69-.68,7.53,7.53,0,0,0,3.9-2.57,4.75,4.75,0,0,0,.76-4.48,1.26,1.26,0,0,0-.62-.77,1.47,1.47,0,0,0-.88,0,32.79,32.79,0,0,0-3.65,1.13,3.5,3.5,0,0,1-1.31.32,1.11,1.11,0,0,1-1.07-.68,2.19,2.19,0,0,0-.17-.55.64.64,0,0,0-.88-.06,1.93,1.93,0,0,0-.51.83C221.49,141,218.61,146,220.55,147.11Z" transform="translate(-11.52 -28.64)" fill="#fdb9a9"/><rect x="279.48" y="194.45" width="3.4" height="31.4" fill="#4c506d"/><path d="M275,258c0,2.32,7.92,4.21,17.69,4.21s17.68-1.89,17.68-4.21a19.09,19.09,0,0,0,0-2.62c-1.26-2-8.8-1.59-17.68-1.59-8.55,0-16-.33-17.69,1.59A10.44,10.44,0,0,0,275,258Z" transform="translate(-11.52 -28.64)" fill="#2f3554"/><ellipse cx="281.18" cy="226.77" rx="17.68" ry="4.21" fill="#4c506d"/><path d="M287.3,217.37h29.26l7-38a4.53,4.53,0,0,0-3.63-5.29,4.78,4.78,0,0,0-.84-.08h-20a4.55,4.55,0,0,0-4.48,3.72Z" transform="translate(-11.52 -28.64)" fill="#4c506d"/><path d="M279.51,217.37h29.26l7-38a4.53,4.53,0,0,0-3.63-5.29,4.78,4.78,0,0,0-.84-.08h-20a4.55,4.55,0,0,0-4.48,3.72Z" transform="translate(-11.52 -28.64)" fill="#2f3554"/><rect x="272.68" y="183" width="32.54" height="11.46" rx="5.73" fill="#4c506d"/><path d="M294.58,148.76c-1.23-2.4-7.09-3.85-9.7-4.3-3.23-.57-6.89,0-9.17,2.39s-2.44,6.79.24,8.71c.6.44,1.3.73,1.87,1.21,1.49,1.28,1.6,3.58,1.21,5.51s-1.2,3.82-1.15,5.79,1.38,4.14,3.35,4.19c1.15,0,2.49-.61,3.33.17a2.47,2.47,0,0,1,.59,1.41c.81,4.24,1.17,8.82,4,12a12.32,12.32,0,0,0,7.4,3.67c3.43.52,7.26-.14,9.66-2.65a9.13,9.13,0,0,0,2.26-7.22,12.76,12.76,0,0,0-3.3-6.95,2.24,2.24,0,0,1-.59-.92c-.18-.77.53-1.41.95-2.11a4.13,4.13,0,0,0-.71-4.64,10.28,10.28,0,0,0-4.23-2.61,9,9,0,0,1-3.36-1.85c-1.64-1.71-1.48-4.4-1.35-6.76.52-8.72-8.77-13.82-16.53-10.83-3.41,1.31-2.35,4-2.35,4s4.18-1.09,7.14,0,1.42,3.63,1.49,4.52a5.55,5.55,0,0,0,2.12,3.91c.61-.47,1.48-.9,2.12.24.5.89-1.06,3.82-2.25,3.72,0,0-1.14.75-.6,2.82,0,0,4.64-2,6.17-4.11S295.8,151.17,294.58,148.76Z" transform="translate(-11.52 -28.64)" fill="#ff681c"/><path d="M298.46,180.13c-2.84,1.63-5.25-.08-5.95-3-.31-1.32-.43-2.68-.86-3.95A19.38,19.38,0,0,0,289,168.6a13,13,0,0,1-2.28-4.76,5,5,0,0,1,1.54-4.82,1.58,1.58,0,0,1,1.14-.4c.66.07,1.05.81,1.15,1.48a9,9,0,0,0,.31,2,4,4,0,0,0,2.36,1.79c2.21.9,4.59,1.71,6.15,3.52a8.35,8.35,0,0,1,1.77,5.93C301.05,175.32,300.44,179,298.46,180.13Z" transform="translate(-11.52 -28.64)" fill="#ff681c"/><path d="M271.11,194.3l3.21,12.07c9.35,1.93,20-1.79,20-1.79-.51-5.37,0-12.72,1-15,2.64-6.11,5.91-14.19,2.11-18.81-3.05-3.71-8.65-3.35-12.07-3.26a92.89,92.89,0,0,1-10.15-.38C262.19,181.07,271.11,194.3,271.11,194.3Z" transform="translate(-11.52 -28.64)" fill="#4c506d"/><path d="M282.7,144.83l-4,11.34s-6.52.12-5.18-6.42,5.86-6.8,5.86-6.8Z" transform="translate(-11.52 -28.64)" fill="#ff681c"/><path d="M288.55,145s-10.9-3.06-12.69,4.58a20.11,20.11,0,0,0-.55,4.83,15.35,15.35,0,0,0,.06,1.66c.49,5,3,8.81,7.05,8.47C289.52,163.91,297.09,148.8,288.55,145Z" transform="translate(-11.52 -28.64)" fill="#ec9c7d"/><path d="M287.3,159.26a.72.72,0,0,0,1,0,8.74,8.74,0,0,0-1.46,4c-.55,4.14,1.46,4.3,1.46,4.3-7.44,4.17-8.54,1.34-8.54,1.34a4.35,4.35,0,0,0,.26-4.64c3.38.93,6.35-3.06,7.06-5.31A.68.68,0,0,0,287.3,159.26Z" transform="translate(-11.52 -28.64)" fill="#d68369"/><path d="M280.72,143.83a4.52,4.52,0,0,1,1.79-.24c3,0,6.18.18,8.9,1.53,1.72.86,3.31,2.37,3.44,4.29a7.77,7.77,0,0,1-.54,2.86,8.34,8.34,0,0,0-.6,2.2c0,.58.22,1.18.22,1.78a6.56,6.56,0,0,1-1.15,3.71,13,13,0,0,1-2.06,2.2l-1.61,1.48a.49.49,0,0,1-.27.15.41.41,0,0,1-.24-.08,3.57,3.57,0,0,1-1.77-3.4,2.06,2.06,0,0,1,.61-1.34,6.61,6.61,0,0,1,1-.57,2.64,2.64,0,0,0,1.26-2.26,1.14,1.14,0,0,0-.44-1,.94.94,0,0,0-1.09.19c-.43.39-.38.82-.93.94a3.07,3.07,0,0,1-1.66-.52c-3.61-2-5-7.28-6.1-11C280,144.62,280.2,144.05,280.72,143.83Z" transform="translate(-11.52 -28.64)" fill="#ff681c"/><path d="M289.33,182.7c3-8.72,5-13,8.05-11.92,0,0,4,2,1.73,10-2.53,9-9.26,17.39-9.26,17.39l-3.12-6.85S287.69,187.5,289.33,182.7Z" transform="translate(-11.52 -28.64)" fill="#ec9c7d"/><path d="M257.5,214.65c.19-.23.81-1,1.74-2l-.23.24C258.48,213.44,258,214.05,257.5,214.65Z" transform="translate(-11.52 -28.64)" fill="#dc9bd5"/><path d="M293.84,202c-4.13.24-8.47.53-12.7,1.15,0,0-16.63,14-18.74,17.38-4.92,7.87-9.69,5.63-2.58,17.13l14.25,23c2.43.82,5-1.31,5.71-3.79s0-5.08-.75-7.54q-2.17-7.46-4.3-14.88c-.3-1.12-.61-2.4,0-3.39a4.21,4.21,0,0,1,1.55-1.29c1.68-1,2.84-3.39,4.71-4a31.32,31.32,0,0,0,9-4,12.66,12.66,0,0,0,5.47-7.93C296.13,210,294.3,206.06,293.84,202Z" transform="translate(-11.52 -28.64)" fill="#6e7dff"/><path d="M281.1,203.22c-3.4.42-9.05-1.14-9.05-1.14-4.86,2.17-10.12,7.56-12.82,10.58h0c-.92,1-1.54,1.78-1.73,2h0l-.27.34c-3,4-4.89,8.72-6.74,13.35l-9.38,23.37a5.61,5.61,0,0,0-.57,2.35c.14,2.89,4,3.66,6.89,3.59l12.47-20s-2.36-7.13,2.57-17.13c1.82-3.58,18.74-17.38,18.74-17.38Z" transform="translate(-11.52 -28.64)" fill="#6e7dff"/><path d="M281.1,203.22c-3.4.42-9.05-1.14-9.05-1.14-4.86,2.17-10.12,7.56-12.82,10.58h0c-.92,1-1.54,1.78-1.73,2h0l-.27.34c-3,4-4.89,8.72-6.74,13.35l-9.38,23.37a5.61,5.61,0,0,0-.57,2.35c.14,2.89,4,3.66,6.89,3.59l12.47-20s-2.36-7.13,2.57-17.13c1.82-3.58,18.74-17.38,18.74-17.38Z" transform="translate(-11.52 -28.64)" fill="url(#linear-gradient-3)"/><path d="M274.34,262.68a17.79,17.79,0,0,1,.94-2.09,13.23,13.23,0,0,1,2-1.58c.29-.26,2-1.7,1.9-2.11a22.8,22.8,0,0,0,1.54,4,4.15,4.15,0,0,1,.7,2.49,3.72,3.72,0,0,1-1.53,2c-2.66,2.19-5.83,4.27-9.25,3.89a.83.83,0,0,1-.58-.23.74.74,0,0,1-.12-.43c-.06-1.51,1.43-2.54,2.54-3.57A9.7,9.7,0,0,0,274.34,262.68Z" transform="translate(-11.52 -28.64)" fill="#ec9c7d"/><path d="M240.88,256.09c.68-.79.75-.81,1.76-.36a13.54,13.54,0,0,1,2.12,1.22.35.35,0,0,1,.19.22.45.45,0,0,1,0,.28l-1,3a2.09,2.09,0,0,1-.65,1.13,2.14,2.14,0,0,1-.92.28,22,22,0,0,1-7.51.21c-.64-.13-1.35-.47-1.35-1.1a1.17,1.17,0,0,1,.26-.64c.76-1,2.15-1.25,3.35-1.67A8.92,8.92,0,0,0,240.88,256.09Z" transform="translate(-11.52 -28.64)" fill="#ec9c7d"/><path d="M242.86,261.19a5.09,5.09,0,0,0-2,.35,14.86,14.86,0,0,1-2.31.27,2.47,2.47,0,0,1-1.89-.5c-.46-.47-.51-1.21-.92-1.72a2,2,0,0,0-1.56-.71,5.1,5.1,0,0,0-1.72.37,8.31,8.31,0,0,0-3.76,2.57.77.77,0,0,0-.2.47.62.62,0,0,0,.14.32,3.76,3.76,0,0,0,2.65,1.17,44.44,44.44,0,0,0,6.81.62,17.28,17.28,0,0,1,3.37.12.94.94,0,0,0,.62,0,.83.83,0,0,0,.3-.34C242.77,263.5,244.19,261.53,242.86,261.19Z" transform="translate(-11.52 -28.64)" fill="#6e7dff"/><path d="M280.85,262c-.66.21-1.21,1.14-1.68,1.62a16.35,16.35,0,0,1-2,1.72,2.84,2.84,0,0,1-2.12.71c-.73-.15-1.27-.82-2-1a2.32,2.32,0,0,0-1.93.33,5.56,5.56,0,0,0-1.41,1.41,9.66,9.66,0,0,0-1.93,4.83.87.87,0,0,0,.11.57.74.74,0,0,0,.33.22,4.26,4.26,0,0,0,3.26-.59,52.26,52.26,0,0,0,6.86-3.73,18.24,18.24,0,0,1,3.27-2,1.08,1.08,0,0,0,.58-.4.92.92,0,0,0,.06-.52C282.2,264.24,282.28,261.46,280.85,262Z" transform="translate(-11.52 -28.64)" fill="#6e7dff"/><path d="M300.25,173.33c-.76-2.05-4.55-6.58-7.11-4.71a9,9,0,0,0-3.33,4.94c-.24.91-.32,1.88-.55,2.82-.31,1.16-.8,2.26-1,3.43a14.56,14.56,0,0,0-.07,3.73c2.44-.34,4.88-.7,7.3-1.07l3.65-.58c.68-.1,2.05.17,2.39-.53a2.27,2.27,0,0,0,.07-1.29l-.3-2.06a22.35,22.35,0,0,0-1-4.5Z" transform="translate(-11.52 -28.64)" fill="#4c506d"/><path d="M212.56,262.22c0,2.32-7.91,4.21-17.68,4.21s-17.68-1.89-17.68-4.21a19.09,19.09,0,0,1,0-2.62c1.25-2,8.8-1.59,17.68-1.59,8.55,0,16-.33,17.68,1.59C212.8,259.87,212.56,261.93,212.56,262.22Z" transform="translate(-11.52 -28.64)" fill="#6e7dff"/><ellipse cx="183.36" cy="230.96" rx="17.68" ry="4.21" fill="#6e7dff"/><ellipse cx="183.36" cy="230.96" rx="17.68" ry="4.21" fill="url(#linear-gradient-4)"/><ellipse cx="84.91" cy="235.8" rx="17.68" ry="4.21" fill="#4c506d"/><rect x="181.33" y="191.47" width="4.1" height="39.78" fill="#6e7dff"/><rect x="181.33" y="191.47" width="4.1" height="13.74" fill="url(#linear-gradient-5)"/><path d="M143.78,257.62v6.05h21.68s-1.26-4.65-9.85-6.05l-2.82-2.29Z" transform="translate(-11.52 -28.64)" fill="#6e7dff"/><path d="M143.78,257.62v6.05h21.68s-1.26-4.65-9.85-6.05l-2.82-2.29Z" transform="translate(-11.52 -28.64)" fill="url(#linear-gradient-6)"/><rect x="131.28" y="235.03" width="23.37" height="1.55" fill="#6e7dff"/><rect x="83.22" y="200.87" width="3.4" height="31.4" fill="#4c506d"/><path d="M114.12,264.44c0,2.33-7.92,4.21-17.69,4.21s-17.68-1.88-17.68-4.21a18.94,18.94,0,0,1,0-2.61c1.26-2,8.8-1.59,17.68-1.59,8.55,0,16-.33,17.69,1.59A10.36,10.36,0,0,1,114.12,264.44Z" transform="translate(-11.52 -28.64)" fill="#2f3554"/><ellipse cx="84.91" cy="233.19" rx="17.68" ry="4.21" fill="#4c506d"/><path d="M101.83,223.78H72.57l-7-38a4.55,4.55,0,0,1,3.62-5.32,4.45,4.45,0,0,1,.81-.08H90a4.56,4.56,0,0,1,4.48,3.73Z" transform="translate(-11.52 -28.64)" fill="#4c506d"/><path d="M109.62,223.78H80.36l-7-38a4.54,4.54,0,0,1,3.64-5.3,4.67,4.67,0,0,1,.83-.08h20a4.56,4.56,0,0,1,4.48,3.73Z" transform="translate(-11.52 -28.64)" fill="#2f3554"/><rect x="60.87" y="189.41" width="32.54" height="11.46" rx="5.73" fill="#4c506d"/><rect x="73.74" y="189.41" width="32.54" height="11.46" rx="5.73" fill="#2f3554"/><path d="M87.32,187.11a20.69,20.69,0,0,1,1.35,3.9c.3,1.65.77,3.25,1.09,4.9A56.85,56.85,0,0,1,90.58,206c0,1.33,0,2.83,1,3.76a4.75,4.75,0,0,0,2.44,1c1.73.35,3.29,1,5,1.33a33.6,33.6,0,0,0,5.67.33c5.59,0,16-.62,15.65-8.45-.38-8.86-1.07-17.48-2.3-26.31-.43-3-.51-6.37-1.41-9.22-.77-2.39-3.54-2.41-5.85-2.17l-.44,0a9.86,9.86,0,0,0-1.33.16,63.78,63.78,0,0,1-9.27.27c-3.49-.11-9.06-.46-12.48,2.82a6.59,6.59,0,0,0-.67.73C83.1,174.42,85,181.17,87.32,187.11Z" transform="translate(-11.52 -28.64)" fill="#fff"/><path d="M132.42,185a36.78,36.78,0,0,1,.46,5.64,3.43,3.43,0,0,1-.41,1.91,3.25,3.25,0,0,1-2.87,1,12.91,12.91,0,0,1-9-3.76,55.32,55.32,0,0,1-6.08-7.16,5.91,5.91,0,0,1-1.38-4.34c0-2.14.09-4.29.28-6.43,0-.5,3.5-.1,3.84,0a13.94,13.94,0,0,1,3.65,1.64,28.71,28.71,0,0,0-.38-4.44,2.14,2.14,0,0,1,.14-1.25c.39-.7,1.37-.77,2.18-.69,1.73.12,3.64.41,4.71,1.76a6.45,6.45,0,0,1,1,2.12A83.91,83.91,0,0,1,132.42,185Z" transform="translate(-11.52 -28.64)" fill="#fff"/><path d="M127.3,186.82a3.08,3.08,0,0,1-.21,2.09c-.77,1.17-2.53.77-3.79.2a30.79,30.79,0,0,1-4.77-2.87,1.27,1.27,0,0,0-.94-.37,1.17,1.17,0,0,0-.63.46,24.81,24.81,0,0,1-8.37,6c-1.09.48-2.52.77-3.3-.08s-.16-2.46.53-3.52L114.06,176a.9.9,0,0,1,.43-.43c.32-.1.63.13.89.35a16.92,16.92,0,0,0,3.74,2.46,2.22,2.22,0,0,0,1.59.28c.77-.26,1-1.2,1.13-2a21.4,21.4,0,0,0,.11-4,3.69,3.69,0,0,1,.1-1.65,1.84,1.84,0,0,1,2.46-.86h0l.18.09c1,.77.85,3.68,1,4.91Z" transform="translate(-11.52 -28.64)" fill="#d8dae1"/><path d="M98.83,186.37a11.6,11.6,0,0,0,3,3.54c1.34,1.05,4.45,5.16,6.38,3.91a7.87,7.87,0,0,1-2.93,1.61c3,2.1,6.74,2.66,10.32,3.33a6.89,6.89,0,0,1,2.64.89,2.48,2.48,0,0,1,1.22,2.36c-.26,1.61-2.31,2.09-4,2.19-4,.25-8.06.33-12,.83-3.41.41-7.07,1.3-9.17,4a1.54,1.54,0,0,1-.6.56,1,1,0,0,1-1.08-.53,2.8,2.8,0,0,1-.22-1.28,36.94,36.94,0,0,0-1.54-9.85c-.38-1.29-.43-2.6-.81-3.84-.46-1.53-1.29-3-1.82-4.48a44.17,44.17,0,0,1-2.09-9.43c-.25-2.25-.09-5,1.85-6.15a4.26,4.26,0,0,1,4.61.48,9.62,9.62,0,0,1,2.82,3.93C96.53,181,97.41,183.93,98.83,186.37Z" transform="translate(-11.52 -28.64)" fill="#d8dae1"/><path d="M107.13,172.34a1.49,1.49,0,0,0-.26.48,1.09,1.09,0,0,0,.12.56A104.46,104.46,0,0,1,111.23,188a75,75,0,0,1,2.3,13.22,2.41,2.41,0,0,1-.07,1c-.33,1.1-1.78,1.45-2.41,2.42l-2-2.4a1.58,1.58,0,0,1-.33-.48,1.67,1.67,0,0,1,0-.77c.72-4.78-.07-9.66-1.19-14.36-1-4-2.18-8.09-2.1-12.25A1.77,1.77,0,0,0,105,173a2.47,2.47,0,0,0-.69-.34,2.32,2.32,0,0,1-1.12-3.06l.06-.11a2.82,2.82,0,0,0,1.27-.33,1.86,1.86,0,0,1,1.29-.17C106.72,169.34,107.68,171.42,107.13,172.34Z" transform="translate(-11.52 -28.64)" fill="#6e7dff"/><path d="M87.2,169.56c3.43-3.28,9-2.94,12.48-2.83a62.49,62.49,0,0,0,9.28-.27l1.32-.16c-1.83-.77-4.44-.25-6.41-.18-3,.09-6,.28-8.92.54S89,167.4,87.2,169.56Z" transform="translate(-11.52 -28.64)" fill="#fff"/><path d="M97.75,157.29a6.28,6.28,0,0,0,7.63,3.77s-1.44,4.41.37,7.08c.34.5-1.94,1-2.07,1a9.49,9.49,0,0,1-3.75-.8,25.2,25.2,0,0,0-5.73-1.9,4,4,0,0,0,2.08-2.16c1.06-2.22.71-4.22.29-6.49a.84.84,0,0,0,1-.1A.73.73,0,0,0,97.75,157.29Z" transform="translate(-11.52 -28.64)" fill="#d68369"/><path d="M101.73,163c4.28,1.26,7.77-2.27,9.35-7.48.17-.56.32-1.16.44-1.76a22.73,22.73,0,0,0,.47-5.27c-.23-8.54-12.51-7.68-12.51-7.68C89.54,143,94.29,160.78,101.73,163Z" transform="translate(-11.52 -28.64)" fill="#ec9c7d"/><path d="M108,139.38a6.45,6.45,0,0,1,3.84,2.67,19.67,19.67,0,0,0,1.34,2.14c.77.93,1.91,1.6,2.31,2.74a8.65,8.65,0,0,1-5.64-1,1.56,1.56,0,0,1-1.34.76,4.57,4.57,0,0,1-1.59-.3,1.48,1.48,0,0,0-.88-.07,1.87,1.87,0,0,0-.59.42,3.94,3.94,0,0,1-3.7.77c-.77-.23-1.54-.7-2.25-.46a2.35,2.35,0,0,0-1.21,2.19c0,.52.26,1,.27,1.55a4.62,4.62,0,0,1-.24,1.65,4,4,0,0,0-1-1,1.38,1.38,0,0,0-1.35-.05,1.4,1.4,0,0,0-.42.42,2.68,2.68,0,0,0,.43,3.41c-.14.53-.27,1.07-.38,1.61a9,9,0,0,1-1.6-2.52,15,15,0,0,0-1.29-3,7.14,7.14,0,0,1-1-1.38,8.36,8.36,0,0,0-.4-1.09c-.51-.89-1.2-1.77-.91-2.87s1.6-2,1.28-3.1c-.07-.2-.13-.41-.19-.62a1.69,1.69,0,0,1,.2-.91,8.44,8.44,0,0,1,5.81-4.43,18.58,18.58,0,0,1,7.5.09c2.49.43,5,1.05,7.47,1.24a.59.59,0,0,1,.54.24.45.45,0,0,1,0,.28c-.1.54-.61.9-1,1.27s-.76,1-.46,1.46" transform="translate(-11.52 -28.64)" fill="#2f3554"/><path d="M98.76,206.21s5.2,13,9.38,14.36,19.64,6.08,19.64,6.08l16.57,33.62,8.45-5.2-14-40.5L121.92,206S117.61,206.07,98.76,206.21Z" transform="translate(-11.52 -28.64)" fill="#2f3554"/><path d="M91.55,208.7s-1,11.86,3.2,13.23S114.38,228,114.38,228l13.78,37.51,9-2.29L125.4,215.94l-16.83-8.63S98.79,203.75,91.55,208.7Z" transform="translate(-11.52 -28.64)" fill="#4c506d"/><path d="M85.17,175.71s7.34,16.44,15.11,18.66,17.14-20.82,17.14-20.82l-6.24-2.35-10.47,10.53s-6.49-13.79-9.12-13.16S84.18,172.88,85.17,175.71Z" transform="translate(-11.52 -28.64)" fill="#fff"/><path d="M119,162a3.29,3.29,0,0,0,.77,1.73,11,11,0,0,1,1,3.26,6.88,6.88,0,0,0,1.32,3.12,2.69,2.69,0,0,0,3.07.81,2.58,2.58,0,0,0,1.26-1.94,5.6,5.6,0,0,0-.27-2.37,14.41,14.41,0,0,0-1.13-2.9,7.35,7.35,0,0,0-1.76-2.3C122.16,160.53,119.16,159.75,119,162Z" transform="translate(-11.52 -28.64)" fill="#d68369"/><path d="M115.89,163a4.34,4.34,0,0,1,1.65-1.67,4.81,4.81,0,0,1,2.09-.29c1.38,0,3,.25,3.65,1.46a3.1,3.1,0,0,1-.3,3c-.53.9-1.28,1.65-1.83,2.55-.76,1.27-1.13,2.87-2.3,3.8a4.22,4.22,0,0,1-1.68.77c-2,.47-4.68-.5-4.21-2.92A21.11,21.11,0,0,1,115.89,163Z" transform="translate(-11.52 -28.64)" fill="#ec9c7d"/><path d="M295.27,209.62c0,8.56-43.37,15.49-96.87,15.49s-96.87-6.93-96.87-15.49c0-.35-.14-4.65,0-5,3.39-8.07,45.59-10.49,96.87-10.49,50.15,0,91.91,2.68,96.87,10.49C295.6,205.15,295.27,209.09,295.27,209.62Z" transform="translate(-11.52 -28.64)" fill="#6e7dff"/><path d="M101.53,209.62c0,8.56,43.37,15.49,96.87,15.49s96.87-6.93,96.87-15.49c0-1,.1-2,0-3a4.14,4.14,0,0,0-.7-1.71A6,6,0,0,0,292,202.1a5.76,5.76,0,0,0-2.22-.29q-3.36,0-6.71.14a88.87,88.87,0,0,0-9.22.79c-2.28.33-4.55.79-6.86.92-4.74.27-9.45-.84-14.2-1a3.09,3.09,0,0,0-1.05.06,4.82,4.82,0,0,0-1.09.48,9.45,9.45,0,0,1-5.58.93c-17.22,1.17-34.4,0-51.55-2-14.33-1.67-28.65-3.71-43.07-4.08a188.11,188.11,0,0,0-44.89,4.26c-2,.44-4.42,1.4-4.51,3.44C101,207.13,102.44,208.52,101.53,209.62Z" transform="translate(-11.52 -28.64)" fill="url(#linear-gradient-7)"/><ellipse cx="186.88" cy="175.99" rx="96.87" ry="15.49" fill="#6e7dff"/><polygon points="150.82 162.41 150.82 164.73 170.06 173.67 203.78 171.28 204.24 169.52 150.82 162.41" fill="#6e7dff"/><polygon points="150.82 162.41 150.82 164.73 170.06 173.67 203.78 171.28 204.24 169.52 150.82 162.41" fill="url(#linear-gradient-8)"/><polygon points="171.12 171.98 150.82 162.41 179.85 157.48 171.12 171.98" fill="#6e7dff"/><polygon points="171.12 171.98 150.82 162.41 179.85 157.48 171.12 171.98" fill="url(#linear-gradient-9)"/><path d="M128.16,265.52v6.06h21.68s-1.27-4.65-9.86-6.06l-2.81-2.29Z" transform="translate(-11.52 -28.64)" fill="#6e7dff"/><path d="M128.16,265.52v6.06h21.68s-1.27-4.65-9.86-6.06l-2.81-2.29Z" transform="translate(-11.52 -28.64)" fill="url(#linear-gradient-10)"/><rect x="115.65" y="242.94" width="23.37" height="1.55" fill="#6e7dff"/><path d="M96.05,165.42a1.7,1.7,0,0,0-1,0c-.51.21-.73.86-1.25,1.05,1.2,1.1,2.82,1.6,4.19,2.47a17.89,17.89,0,0,1,3.78,3.54c1.29-.72,1.21-2.72,2.34-3.68a7.94,7.94,0,0,1-2.27-1,12.9,12.9,0,0,1-1.62-.91A12.15,12.15,0,0,0,96.05,165.42Z" transform="translate(-11.52 -28.64)" fill="#fff"/><path d="M107.17,166.18a7.36,7.36,0,0,1,1.1,1.2l1.28,1.64a.65.65,0,0,1,.19.49.46.46,0,0,1-.53.28,3.52,3.52,0,0,1-.62-.22,5,5,0,0,0-1.44-.09,5.75,5.75,0,0,1-1.72-.45.25.25,0,0,1-.17-.11.31.31,0,0,1,0-.19,4,4,0,0,0-.25-1.68c-.15-.4-.41-.86-.15-1.27C105.35,165,106.66,165.76,107.17,166.18Z" transform="translate(-11.52 -28.64)" fill="#fff"/><polygon points="123.82 168.18 149.02 169.31 141.28 178.32 113.54 175.99 123.82 168.18" fill="#fff"/><path d="M240.08,196.82c-1.41.14-24.78,6.9-24.78,6.9l13.51,10.42L255.56,207Z" transform="translate(-11.52 -28.64)" fill="#fff"/><polygon points="204.24 169.52 171.12 171.98 177.38 145.07 212.23 142.98 204.24 169.52" fill="#6e7dff"/><polygon points="204.24 169.52 171.12 171.98 177.38 145.07 212.23 142.98 204.24 169.52" fill="url(#linear-gradient-11)"/><polygon points="225.27 149.36 245.98 145.33 255.91 168.18 238.22 171.7 225.27 149.36" fill="#fff"/><path d="M263.72,189.45l1.79-2.06s19,3,21.74,4.09,2.6,6.68,2.6,6.68C282.41,200.22,263.72,189.45,263.72,189.45Z" transform="translate(-11.52 -28.64)" fill="#ec9c7d"/><path d="M267.14,190a1.1,1.1,0,0,1-.38.59,1.69,1.69,0,0,1-.65.23c-1.34.32-2.37,1.38-3.66,1.88-1.74.69-3.69.27-5.5-.17a1.48,1.48,0,0,1-1.58-1.37,1.5,1.5,0,0,1,.5-1.22,7.66,7.66,0,0,1,1.82-2.33c1.6-1.19,3.81-.94,5.77-.63C265.25,187.25,267.94,187.34,267.14,190Z" transform="translate(-11.52 -28.64)" fill="#ec9c7d"/><polygon points="173.04 163.68 163.61 165.88 171.12 170.96 173.04 163.68" fill="url(#linear-gradient-12)"/><polygon points="170.81 159.9 165.51 161.21 168.39 163.77 173.04 162.53 170.81 159.9" fill="url(#linear-gradient-13)"/><path d="M160.82,145.35c-1,6.08.93,12.27,3.48,17.89s5.71,11,7.31,17a13.66,13.66,0,0,0,9.6-2.25L171,140.53c-.59-2.12-2.44-7.82-5.43-6.54C163.14,135,161.21,143,160.82,145.35Z" transform="translate(-11.52 -28.64)" fill="#6e7dff"/><path d="M183.13,182.64a10.84,10.84,0,0,1,1.13,6.87.64.64,0,0,1-.36.6.55.55,0,0,1-.45-.08c-.89-.55-.79-2.33-1.84-2.39a1.37,1.37,0,0,0-.63.16,15.12,15.12,0,0,1-2.83,1,3.88,3.88,0,0,1-2.88-.49,4.51,4.51,0,0,1-1.55-3.47,19.71,19.71,0,0,0-.3-3.91c-.66-2.5,2.9-3.14,4.84-3.13C180.59,177.79,182.22,180.83,183.13,182.64Z" transform="translate(-11.52 -28.64)" fill="#fdb9a9"/><rect x="179.85" y="42.47" width="89.54" height="3.94" fill="#6e7dff"/><polyline points="194.11 88.36 216.45 72.59 227.34 80.48 249.81 63.96" fill="none" stroke="#6e7dff" stroke-miterlimit="10"/></svg>